<svg width="16" height="16" viewBox="0 0 16 16" fill="none" xmlns="http://www.w3.org/2000/svg">
<path d="M13.7576 2.61983C13.0616 1.91869 12.2331 1.36282 11.3205 0.984506C10.4078 0.60619 9.42904 0.412965 8.44106 0.416052C4.29986 0.416052 0.929258 3.78665 0.929258 7.9307C0.929258 9.25487 1.27618 10.5496 1.93304 11.6871L0.866699 15.5818L4.85056 14.5364C5.95194 15.1363 7.18594 15.4511 8.44012 15.452H8.44296C12.5842 15.452 15.9576 12.0814 15.9576 7.93734C15.9601 6.9497 15.7669 5.97136 15.3892 5.05882C15.0114 4.14628 14.4565 3.31765 13.7567 2.62078L13.7576 2.61983ZM8.44296 14.1838C7.32368 14.1839 6.22496 13.8831 5.26194 13.3127L5.0335 13.1762L2.66953 13.7951L3.30081 11.4909L3.15294 11.2539C2.52523 10.2594 2.19351 9.10676 2.19655 7.9307C2.19856 6.27393 2.85779 4.68562 4.02958 3.51437C5.20137 2.34311 6.78997 1.6846 8.44675 1.68334C10.114 1.68334 11.6846 2.33547 12.8628 3.51367C13.4443 4.09299 13.9051 4.78178 14.2188 5.54025C14.5325 6.29872 14.6927 7.11183 14.6903 7.9326C14.6875 11.38 11.8856 14.1828 8.44296 14.1828V14.1838ZM11.8676 9.50416C11.6809 9.40937 10.7567 8.95629 10.5851 8.89373C10.4136 8.83117 10.2884 8.79895 10.1614 8.98852C10.0373 9.17525 9.67613 9.59894 9.56618 9.72596C9.45622 9.85012 9.34722 9.86813 9.16049 9.77335C8.97376 9.67856 8.36618 9.48046 7.6496 8.84065C7.09226 8.34302 6.71406 7.72691 6.60411 7.54018C6.49416 7.35346 6.59179 7.25014 6.68752 7.1582C6.77378 7.07478 6.87425 6.93924 6.96904 6.82929C7.06382 6.71934 7.0932 6.64256 7.15576 6.51555C7.21832 6.39138 7.18799 6.28142 7.1406 6.18664C7.0932 6.09185 6.7169 5.16769 6.56335 4.79138C6.41264 4.42361 6.2553 4.4748 6.13966 4.46816C6.0297 4.46248 5.90553 4.46248 5.78136 4.46248C5.65719 4.46248 5.45246 4.50987 5.28089 4.6966C5.10933 4.88333 4.62308 5.33925 4.62308 6.26341C4.62308 7.18758 5.29511 8.07952 5.3899 8.20653C5.48468 8.3307 6.71406 10.2293 8.59746 11.0416C9.04485 11.234 9.39461 11.3496 9.66665 11.4387C10.1169 11.5809 10.5254 11.5601 10.8486 11.5127C11.2098 11.4596 11.9595 11.0596 12.1169 10.6207C12.2742 10.1819 12.2742 9.80652 12.2268 9.7288C12.1823 9.64539 12.0581 9.59894 11.8685 9.50321L11.8676 9.50416Z" fill="#1E2123"/>
</svg>
